<svg xmlns="http://www.w3.org/2000/svg" viewBox="0 0 512 512">
	<path fill="#334680" d="M480.685 61.644c-4.1-1.269-8.451-1.911-13.058-1.911H44.373c-4.608 0-8.959.642-13.059 1.911C13.065 67.141 0 83.917 0 104.107v303.787c0 12.278 4.835 23.291 12.725 31.276.277.412.58.802.928 1.15a46.855 46.855 0 007.12 5.27c6.256 3.889 13.578 6.264 21.484 6.624.705.034 1.41.052 2.115.052h423.253c.705 0 1.411-.018 2.115-.052 23.742-1.081 42.26-20.284 42.26-44.321V104.107c0-20.19-13.066-36.966-31.315-42.463zM306.461 263.573l185.13-172.788c2.135 3.915 3.343 8.445 3.343 13.321v303.787c0 5.426-1.496 10.422-4.102 14.62l-184.371-158.94zM467.627 76.8c.502 0 .99.014 1.469.038.239.012.474.034.711.052.257.019.517.035.769.062.123.013.243.031.365.045 2.81.339 5.297 1.122 7.779 2.364L290.769 255.107c-1.11.393-2.19.993-3.195 1.747l-6.827 5.973c-14.507 13.653-36.693 13.653-51.2 0l-.923-.807L33.28 79.36c2.482-1.241 4.969-2.025 7.779-2.364.122-.014.242-.032.365-.045.252-.027.512-.042.77-.062.237-.018.472-.04.711-.052.479-.024.967-.038 1.469-.038h423.253zM20.593 421.538c-2.247-3.989-3.526-8.633-3.526-13.645V104.107c0-4.876 1.208-9.406 3.343-13.321l184.31 172.023L20.593 421.538zm23.78 13.662c-2.768 0-5.536-.563-8.305-1.23a27.016 27.016 0 01-1.771-.617l183.681-158.169.476.444c3.516 2.975 7.204 5.518 11.036 7.608 20.16 11.555 46.703 9.023 64.058-7.608l.885-.826 183.272 158.551c-.582.223-1.17.433-1.772.618-2.768.667-5.536 1.23-8.305 1.23H44.373z" />
</svg>
